<svg xmlns="http://www.w3.org/2000/svg" fill="none" viewBox="0 0 170 170"><g fill="#0E242E" clip-path="url(#a)"><path d="M10 74.304c.185.01.372.027.556.027 3.69 0 7.377-.02 11.066.01 2.218.017 4.403.306 6.509 1.057 4.195 1.493 6.573 4.486 7.26 8.834.373 2.367.326 4.737-.238 7.078-.944 3.927-3.376 6.505-7.184 7.82-2.25.776-4.586 1.012-6.947 1.024-3.675.02-7.347.009-11.022.011v-.605c.56-.113 1.127-.2 1.68-.345.909-.24 1.449-.856 1.584-1.777.097-.662.167-1.335.168-2.005.013-5.464.01-10.929.004-16.395 0-.513-.034-1.03-.088-1.54-.15-1.425-.68-2.023-2.08-2.359-.417-.1-.844-.156-1.268-.233v-.602Zm9.577 24.477c.98 0 1.944.079 2.89-.015 2.786-.274 4.725-1.71 5.518-4.426a20.52 20.52 0 0 0 .726-3.91c.26-2.9.247-5.804-.286-8.681-.287-1.551-.777-3.032-1.912-4.197-1.928-1.98-4.421-1.966-6.936-1.953V98.78Zm125.281 1.811c-.73-.135-1.472-.226-2.188-.411-5.139-1.334-8.143-4.689-9.157-9.826-.56-2.837-.452-5.684.506-8.434 1.634-4.687 5.021-7.322 9.875-8.12 2.537-.416 5.043-.207 7.454.715 3.638 1.393 6.049 3.982 7.186 7.685 1.035 3.373 1.041 6.793-.103 10.137-1.522 4.447-4.719 7.048-9.298 7.999-.503.104-1.013.172-1.517.257h-2.756l-.002-.002Zm-4.893-12.916c.034.65.082 1.878.17 3.104.045.626.14 1.251.248 1.87.271 1.56.68 3.075 1.6 4.4 1.818 2.618 5.694 2.951 7.938.684.752-.76 1.217-1.69 1.563-2.685.555-1.594.794-3.248.903-4.923.196-3.005.181-6.004-.379-8.977-.265-1.414-.685-2.777-1.52-3.978-1.996-2.872-6.326-2.94-8.412-.13-.668.898-1.068 1.922-1.355 2.992-.623 2.314-.726 4.685-.756 7.645v-.002ZM73.474 74.331h.535c2.425 0 4.85.007 7.275-.007.316-.002.481.106.641.37 3.838 6.362 7.683 12.718 11.528 19.075.058.095.122.185.237.357.011-.178.022-.267.022-.357-.004-5.068-.002-10.136-.018-15.205 0-.526-.076-1.055-.163-1.576-.15-.883-.668-1.48-1.539-1.725-.55-.156-1.115-.262-1.7-.397v-.508h8.491v.526l-.469.097c-.364.079-.73.149-1.09.24-1.028.26-1.586.943-1.708 1.968-.08.68-.142 1.368-.142 2.052-.01 6.771-.005 13.544-.005 20.315v.598h-1.065c-1.235 0-2.468-.011-3.703.007-.296.004-.454-.095-.605-.344-3.644-6.028-7.295-12.05-10.947-18.072-.339-.56-.682-1.118-1.08-1.774-.013.225-.027.343-.027.462.003 5.14 0 10.279.021 15.418.002.623.106 1.253.232 1.867.145.71.608 1.2 1.303 1.418.612.192 1.242.322 1.894.487v.504h-8.498v-.537c.477-.1.953-.188 1.425-.301 1.086-.26 1.71-.946 1.83-2.06.062-.58.129-1.168.13-1.751.01-5.885.01-11.77-.005-17.652 0-.29-.113-.617-.275-.863-.585-.889-1.22-1.738-2.287-2.13-.106-.039-.136-.277-.237-.502h-.001Zm55.7 25.219v.581h-11.35v-.546c.158-.036.334-.075.51-.12 1.199-.296 1.66-1.02 1.305-2.2-.293-.969-.682-1.91-1.036-2.86-.309-.832-.637-1.656-.937-2.489-.088-.242-.212-.325-.469-.325-2.468.01-4.936.002-7.403.013-.127 0-.332.086-.37.183-.603 1.547-1.188 3.102-1.274 4.786-.011.2 0 .4.016.6.088 1.129.637 1.818 1.734 2.136.424.122.864.194 1.321.292v.523h-8.44v-.532c.043-.016.104-.046.169-.059 1.161-.196 1.954-.885 2.421-1.919.652-1.445 1.289-2.9 1.853-4.382 2.362-6.2 4.698-12.41 7.033-18.619.118-.316.255-.445.609-.433.788.031 1.577.024 2.367.002.311-.009.447.1.557.386 2.447 6.457 4.904 12.913 7.362 19.366.36.95.73 1.894 1.095 2.842.536 1.39 1.236 2.61 2.931 2.771l-.004.002Zm-19.057-9.612h6.79l-2.882-9.91c-.03 0-.061.001-.091.003-1.268 3.287-2.533 6.575-3.817 9.907Zm-61.12 9.642v.551h-8.44c-.112-.367-.069-.584.375-.663.886-.156 1.58-.662 1.967-1.46.645-1.32 1.276-2.654 1.8-4.027 2.46-6.44 4.883-12.891 7.305-19.343.136-.362.307-.472.68-.458.76.03 1.523.027 2.282 0 .332-.012.474.113.585.41a9572.264 9572.264 0 0 0 6.897 18.121c.582 1.523 1.178 3.04 1.777 4.555.456 1.156 1.192 2.005 2.485 2.272.134.027.211.327.37.591H55.57l-.024-.523c.269-.071.531-.129.784-.21.97-.308 1.393-.926 1.117-1.895-.327-1.15-.783-2.267-1.194-3.393-.27-.74-.567-1.467-.833-2.208-.08-.226-.194-.307-.434-.307-2.469.007-4.937 0-7.405.014-.137 0-.354.101-.397.209-.6 1.502-1.172 3.02-1.265 4.656-.105 1.837.622 2.709 2.437 3.005l.64.104.001-.001Zm2.793-19.555-.097.016-3.805 9.892h6.782c-.97-3.332-1.925-6.619-2.88-9.906v-.002Z"/></g><defs><clipPath id="a"><path fill="#fff" d="M10 73.595h149.3v26.997H10z"/></clipPath></defs></svg>