<svg xmlns="http://www.w3.org/2000/svg" fill="none" viewBox="0 0 169 169"><g fill="#0E242E" clip-path="url(#a)"><path d="M68.28 88.922 58.7 67.364l-.023-.05h-1.902L67.569 90.96l.023.052h1.344l10.785-23.7h-1.833l-9.608 21.61ZM37.23 66.747h-.126c-3.83 0-7.31 2.289-8.822 5.768V67.31h-1.659v23.507h1.66V77.574c0-5.201 3.845-9.273 8.755-9.273 5.187 0 8.283 3.361 8.283 8.991v13.53h1.659V77.074c0-6.368-3.738-10.326-9.752-10.326l.001-.001Zm16.067.567h-1.722v23.51h1.721v-23.51ZM20.18 80.647c-.042 5.16-3.874 9.186-8.756 9.186-5.187 0-8.283-3.361-8.283-8.99v-13.53H1.482v13.75c0 6.37 3.749 10.327 9.782 10.327h.125c3.83 0 7.31-2.29 8.82-5.769v5.205h1.66V67.314h-1.66l-.033 13.333h.004Zm138.094-11.141c-1.738-1.729-4.197-2.57-7.516-2.57a18.37 18.37 0 0 0-8.314 2.051l-.072.038.64 1.448.084-.045a16.583 16.583 0 0 1 7.603-1.937c5.362 0 8.314 2.769 8.314 7.795v1.452a26.699 26.699 0 0 0-8.314-1.255c-3.039 0-5.628.673-7.483 1.944-1.96 1.341-2.996 3.295-2.996 5.65v.1c0 2.222.967 4.09 2.796 5.404 1.629 1.17 3.83 1.814 6.198 1.814 5.192 0 8.426-2.606 9.799-5.158v4.59h1.659V76.195c-.03-2.782-.857-5.094-2.392-6.686l-.006-.002Zm.736 9.799v2.825c0 4.32-4.277 7.703-9.737 7.703-3.635 0-7.302-1.779-7.302-5.756v-.095c0-3.665 3.319-5.945 8.662-5.945h.209c2.774 0 5.522.426 8.168 1.266v.002Zm-56.909-.178v-.01c0-3.262-.977-6.293-2.75-8.539-1.979-2.505-4.784-3.83-8.106-3.83-6.442 0-11.3 5.25-11.3 12.211v.093c0 7.131 4.938 12.306 11.742 12.306h.081c3.778 0 7.36-1.805 9.593-4.841l.048-.067-1.241-.988-.054.073a10.611 10.611 0 0 1-8.363 4.269c-2.606 0-5.037-.97-6.847-2.732-1.9-1.848-2.984-4.394-3.137-7.366h20.374l-.036-.58h-.004Zm-1.789-.948H81.766c.323-5.728 4.27-9.878 9.415-9.878 5.942 0 8.889 5.103 9.131 9.878Zm66.671-21.357h-1.721v34.002h1.721V56.822Zm-55.712 12.297c-1.502 1.257-2.737 2.996-3.509 4.933v-6.744h-1.658v23.507h1.658V79.68c0-2.811.988-5.62 2.711-7.708 1.82-2.205 4.281-3.42 6.93-3.42h.339v-1.71h-.085c-2.326-.06-4.536.726-6.388 2.275l.002.002Zm17.288 8.877c-4.008-1.12-7.075-2.198-7.075-4.975v-.093c0-2.649 2.601-4.5 6.324-4.5 2.667.058 5.228.9 7.405 2.435l.073.05.952-1.4-.071-.048a15.416 15.416 0 0 0-8.292-2.622c-4.699 0-8.109 2.613-8.109 6.211v.093c0 4.08 4.175 5.274 8.214 6.43 3.477.94 7.074 1.912 7.074 5.194v.093c0 2.725-2.841 4.78-6.607 4.78a14.348 14.348 0 0 1-8.697-3.184l-.069-.057-.989 1.296.066.054a15.607 15.607 0 0 0 9.594 3.443c4.882 0 8.425-2.718 8.425-6.464v-.062c-.003-4.112-3.887-5.505-8.215-6.676l-.003.002ZM4.03 102.686h1.76v4.142h4.782v-4.142h1.761v9.964h-1.761v-4.2H5.791v4.2H4.029v-9.964Zm15.444 5.01v-.027c0-2.805 2.177-5.155 5.254-5.155 3.078 0 5.225 2.321 5.225 5.125v.028c0 2.805-2.177 5.155-5.254 5.155-3.078 0-5.225-2.321-5.225-5.126Zm8.633 0v-.027c0-1.937-1.418-3.545-3.408-3.545-1.991 0-3.379 1.581-3.379 3.517v.028c0 1.936 1.418 3.531 3.408 3.531 1.991 0 3.378-1.567 3.378-3.502v-.002Zm10.906-3.389h-3.178v-1.623h8.132v1.623h-3.178v8.343h-1.776v-8.343Zm11.823-1.621h7.43v1.566h-5.668v2.592h5.024v1.567h-5.024v2.676h5.74v1.567h-7.5v-9.965l-.002-.003Zm14.6 0h1.761v8.37h5.269v1.594h-7.03v-9.964Zm22.502 8.512 1.059-1.254c.96.827 1.931 1.295 3.164 1.295 1.089 0 1.775-.512 1.775-1.253v-.028c0-.712-.401-1.096-2.262-1.523-2.133-.512-3.334-1.14-3.334-2.976v-.028c0-1.708 1.43-2.889 3.421-2.889 1.46 0 2.62.441 3.636 1.254l-.944 1.324c-.903-.669-1.803-1.025-2.72-1.025-1.03 0-1.632.527-1.632 1.181v.027c0 .77.457 1.11 2.39 1.567 2.12.512 3.207 1.267 3.207 2.919v.027c0 1.866-1.475 2.976-3.579 2.976a6.192 6.192 0 0 1-4.18-1.594h-.001Zm14.685-2.775v-5.737h1.761v5.666c0 1.85.96 2.834 2.533 2.834 1.574 0 2.52-.925 2.52-2.762v-5.737h1.761v5.653c0 2.975-1.69 4.469-4.308 4.469-2.619 0-4.267-1.494-4.267-4.385v-.001Zm16.003-5.737h3.952c2.347 0 3.807 1.324 3.807 3.331v.028c0 2.236-1.803 3.403-4.007 3.403h-1.989v3.202h-1.762v-9.964h-.001Zm3.807 5.182c1.332 0 2.161-.74 2.161-1.78v-.027c0-1.167-.845-1.78-2.161-1.78h-2.046v3.588h2.046v-.001Zm10.764-5.182h3.952c2.348 0 3.808 1.324 3.808 3.331v.028c0 2.236-1.803 3.403-4.007 3.403h-1.99v3.202h-1.761v-9.964h-.002Zm3.808 5.182c1.332 0 2.161-.74 2.161-1.78v-.027c0-1.167-.845-1.78-2.161-1.78h-2.046v3.588h2.046v-.001Zm10.764-5.182h1.762v8.37h5.268v1.594h-7.03v-9.964Zm14.958 6.036-3.98-6.036h2.09l2.791 4.398 2.834-4.398h2.018l-3.979 5.993v3.971h-1.776v-3.928h.002Z"/></g><defs><clipPath id="a"><path fill="#fff" d="M1.482 56.822h167v56h-167z"/></clipPath></defs></svg>